<?xml version="1.0" standalone="no"?>
<!DOCTYPE svg PUBLIC "-//W3C//DTD SVG 20010904//EN"
 "http://www.w3.org/TR/2001/REC-SVG-20010904/DTD/svg10.dtd">
<svg version="1.0" xmlns="http://www.w3.org/2000/svg"
 width="86.000000pt" height="86.000000pt" viewBox="0 0 86.000000 86.000000"
 preserveAspectRatio="xMidYMid meet">
<metadata>
Created by potrace 1.14, written by Peter Selinger 2001-2017
</metadata>
<g transform="translate(0.000000,86.000000) scale(0.100000,-0.100000)"
fill="#000000" stroke="none">
<path d="M362 818 c-184 -20 -344 -182 -357 -361 -2 -34 -2 -53 1 -43 5 15 8
16 14 5 13 -20 19 -8 25 49 14 142 126 266 275 306 129 34 267 3 358 -79 46
-41 92 -113 92 -144 0 -25 12 -33 30 -20 12 8 12 12 2 16 -6 2 -10 9 -6 14 3
5 0 9 -6 9 -6 0 -8 5 -5 10 3 6 1 10 -5 10 -6 0 -9 4 -6 9 16 25 -126 163
-180 177 -13 3 -24 10 -24 15 0 5 -9 9 -20 9 -11 0 -20 4 -20 9 0 4 -10 7 -22
7 -13 -1 -27 0 -32 3 -15 7 -44 7 -114 -1z"/>
<path d="M283 613 c-7 -3 -13 -17 -13 -31 0 -32 -9 -46 -32 -55 -26 -9 -22
-27 6 -27 22 0 23 -3 24 -72 0 -108 0 -108 17 -102 12 5 15 25 15 90 0 76 2
84 19 84 28 0 35 28 8 32 -18 2 -23 11 -27 44 -3 27 -9 39 -17 37z"/>
<path d="M423 529 c-31 -11 -35 -24 -35 -101 0 -84 10 -97 74 -100 52 -3 78
13 78 48 0 29 -15 31 -30 3 -9 -16 -19 -19 -48 -17 l-37 3 0 65 0 65 38 3 c32
3 39 0 44 -17 3 -12 12 -21 19 -21 15 0 19 37 6 57 -9 14 -81 22 -109 12z"/>
<path d="M631 481 c-1 -8 -7 -11 -17 -7 -8 3 -12 2 -9 -4 3 -5 16 -8 28 -6 12
3 25 5 30 5 4 1 7 6 7 12 0 8 -4 8 -14 0 -11 -9 -15 -9 -19 1 -4 10 -6 10 -6
-1z"/>
<path d="M821 480 c-1 -3 -3 -37 -5 -76 -6 -137 -82 -245 -216 -308 -60 -29
-73 -31 -170 -31 -90 1 -112 4 -155 25 -73 35 -129 87 -161 145 -10 19 -25 35
-34 34 -10 0 -11 -2 -2 -6 6 -2 10 -9 6 -14 -3 -5 0 -9 6 -9 6 0 9 -4 6 -8 -7
-12 86 -114 120 -132 16 -8 45 -24 64 -36 19 -11 41 -19 49 -16 8 3 11 0 7 -6
-6 -11 1 -11 113 -12 85 -1 123 9 207 56 117 64 191 176 200 303 3 44 1 59 -5
46 -8 -18 -10 -16 -19 15 -6 19 -11 33 -11 30z"/>
<path d="M597 444 c7 -3 9 -13 6 -22 -4 -15 -3 -15 6 -2 15 22 14 30 -6 29
-10 0 -13 -3 -6 -5z"/>
<path d="M634 434 c5 -10 13 -31 18 -46 11 -31 28 -37 28 -11 0 14 4 12 25 -7
27 -26 35 -19 9 8 -15 14 -15 17 1 29 17 11 16 13 -9 23 -15 5 -39 13 -53 16
-23 6 -25 5 -19 -12z"/>
<path d="M30 385 c0 -8 4 -15 10 -15 5 0 7 7 4 15 -4 8 -8 15 -10 15 -2 0 -4
-7 -4 -15z"/>
<path d="M73 306 c3 -8 1 -17 -6 -20 -7 -2 -4 -5 6 -5 11 -1 17 6 17 19 0 11
-5 20 -11 20 -6 0 -9 -6 -6 -14z"/>
</g>
</svg>
