<svg xmlns="http://www.w3.org/2000/svg" version="1.1" xmlns:xlink="http://www.w3.org/1999/xlink" xmlns:svgjs="http://svgjs.com/svgjs" width="900" height="1200" preserveAspectRatio="none" viewBox="0 0 900 1200"><g mask="url(&quot;#SvgjsMask1105&quot;)" fill="none"><rect width="900" height="1200" x="0" y="0" fill="rgba(28, 17, 16, 1)"></rect><path d="M654 521L653 842" stroke-width="10" stroke="url(#SvgjsLinearGradient1106)" stroke-linecap="round" class="Down"></path><path d="M630 1194L629 798" stroke-width="6" stroke="url(#SvgjsLinearGradient1107)" stroke-linecap="round" class="Up"></path><path d="M160 449L159 784" stroke-width="10" stroke="url(#SvgjsLinearGradient1106)" stroke-linecap="round" class="Down"></path><path d="M325 915L324 48" stroke-width="6" stroke="url(#SvgjsLinearGradient1107)" stroke-linecap="round" class="Up"></path><path d="M730 1016L729 277" stroke-width="10" stroke="url(#SvgjsLinearGradient1107)" stroke-linecap="round" class="Up"></path><path d="M633 573L632 1038" stroke-width="6" stroke="url(#SvgjsLinearGradient1106)" stroke-linecap="round" class="Down"></path><path d="M676 214L675 -634" stroke-width="8" stroke="url(#SvgjsLinearGradient1107)" stroke-linecap="round" class="Up"></path><path d="M656 270L655 -275" stroke-width="10" stroke="url(#SvgjsLinearGradient1107)" stroke-linecap="round" class="Up"></path><path d="M731 218L730 669" stroke-width="8" stroke="url(#SvgjsLinearGradient1107)" stroke-linecap="round" class="Up"></path><path d="M841 920L840 1641" stroke-width="10" stroke="url(#SvgjsLinearGradient1107)" stroke-linecap="round" class="Up"></path><path d="M778 700L777 22" stroke-width="6" stroke="url(#SvgjsLinearGradient1106)" stroke-linecap="round" class="Down"></path><path d="M151 1122L150 691" stroke-width="6" stroke="url(#SvgjsLinearGradient1106)" stroke-linecap="round" class="Down"></path><path d="M175 155L174 -356" stroke-width="8" stroke="url(#SvgjsLinearGradient1107)" stroke-linecap="round" class="Up"></path><path d="M243 345L242 -284" stroke-width="10" stroke="url(#SvgjsLinearGradient1106)" stroke-linecap="round" class="Down"></path><path d="M716 871L715 1701" stroke-width="10" stroke="url(#SvgjsLinearGradient1106)" stroke-linecap="round" class="Down"></path><path d="M546 1047L545 1712" stroke-width="6" stroke="url(#SvgjsLinearGradient1107)" stroke-linecap="round" class="Up"></path><path d="M124 885L123 78" stroke-width="8" stroke="url(#SvgjsLinearGradient1106)" stroke-linecap="round" class="Down"></path><path d="M92 222L91 -281" stroke-width="6" stroke="url(#SvgjsLinearGradient1106)" stroke-linecap="round" class="Down"></path><path d="M366 1185L365 2068" stroke-width="10" stroke="url(#SvgjsLinearGradient1107)" stroke-linecap="round" class="Up"></path><path d="M2 1093L1 420" stroke-width="8" stroke="url(#SvgjsLinearGradient1107)" stroke-linecap="round" class="Up"></path><path d="M220 566L219 1110" stroke-width="6" stroke="url(#SvgjsLinearGradient1107)" stroke-linecap="round" class="Up"></path><path d="M431 131L430 -734" stroke-width="6" stroke="url(#SvgjsLinearGradient1107)" stroke-linecap="round" class="Up"></path><path d="M3 1135L2 502" stroke-width="6" stroke="url(#SvgjsLinearGradient1107)" stroke-linecap="round" class="Up"></path></g><defs><mask id="SvgjsMask1105"><rect width="900" height="1200" fill="#ffffff"></rect></mask><linearGradient x1="0%" y1="0%" x2="0%" y2="100%" id="SvgjsLinearGradient1106"><stop stop-color="rgba(237, 78, 78, 0)" offset="0"></stop><stop stop-color="rgba(237, 78, 78, 0.17)" offset="1"></stop></linearGradient><linearGradient x1="0%" y1="100%" x2="0%" y2="0%" id="SvgjsLinearGradient1107"><stop stop-color="rgba(237, 78, 78, 0)" offset="0"></stop><stop stop-color="rgba(237, 78, 78, 0.17)" offset="1"></stop></linearGradient></defs></svg>